# xmcd
#
# Track frame offsets:
#  150
#  9757
#  23904
#  36067
#  51652
#  65978
#  83829
#  99586
#  112368
#  124188
#  140464
#  153607
#  164695
#  178487
#  191413
#  205897
#
# Disc length: 2934 seconds
#
# Revision: 0
# Processed by: cddbd v1.4PL0 Copyright (c) Steve Scherf et al.
# Submitted via: AltoMP3_Maker 3.0
#
DISCID=f00b7410
DTITLE=TO NEO KYMA - TO NEO KYMA CD4
DYEAR=1900
DGENRE=
TTITLE0=ASPRA KARABIA
TTITLE1=XALALIN TOY
TTITLE2=MA MILAS ALLO GI AGAPH
TTITLE3=MIA FYSARMONIKA
TTITLE4=TA GIORTINA SOY FORESE
TTITLE5=PALIKARI DYPSASMENO
TTITLE6=THA PIW KI APOPSE TO FEGGARI
TTITLE7=H BROXH
TTITLE8=LABWMENO PALIKARI
TTITLE9=H BALANTA THS KAITHS
TTITLE10=O IRLANDOS KI O IOYDAIOS
TTITLE11=TA RIALIA
TTITLE12=S AYTH TH GH
TTITLE13=NANI TOY RHGA TO PAIDI
TTITLE14=POIOS NA SFYRIZEI
TTITLE15=BGHKE T ONEIRO SERIANI
EXTD=
EXTT0=
EXTT1=
EXTT2=
EXTT3=
EXTT4=
EXTT5=
EXTT6=
EXTT7=
EXTT8=
EXTT9=
EXTT10=
EXTT11=
EXTT12=
EXTT13=
EXTT14=
EXTT15=
PLAYORDER=
